<svg width="80" height="80" viewBox="0 0 80 80" fill="none" xmlns="http://www.w3.org/2000/svg">
<g clip-path="url(#clip0_23_1091)">
<path d="M40.0039 75.521L55.8522 71.5188C64.8983 64.0072 70.6602 52.6772 70.6602 40.0002C70.6602 20.4464 56.9553 4.09378 38.627 0.0233154C17.1714 0.746909 0 18.3682 0 40C0 51.1113 4.53125 61.1635 11.8456 68.4119L40.0039 75.521Z" fill="#CBE2FF"/>
<path d="M69.8303 40C69.8303 53.1117 63.5208 64.7486 53.7732 72.0436L68.1531 68.4122C75.468 61.1638 80 51.1116 80 40C80 17.9086 62.0914 0 39.9999 0C38.2774 0 36.5803 0.109062 34.9151 0.320312C54.6056 2.81844 69.8303 19.6313 69.8303 40Z" fill="#BED8FB"/>
<path d="M49.9408 15.1496C49.9408 13.1066 48.2847 11.4505 46.2417 11.4505H33.4945C28.7928 11.4505 24.9812 15.2621 24.9812 19.9638V29.4158H55.0139V20.0978C55.0139 18.0549 53.3578 16.3988 51.3148 16.3988H51.1901C50.5001 16.3988 49.9408 15.8396 49.9408 15.1496Z" fill="#365E7D"/>
<path d="M51.3149 16.398H51.1902C50.5002 16.398 49.9408 15.8386 49.9408 15.1486C49.9408 13.1056 48.2847 11.4495 46.2418 11.4495H44.8441V29.4148H55.0138V20.0969C55.014 18.0542 53.3577 16.398 51.3149 16.398Z" fill="#2B4D66"/>
<path d="M66.4133 58.1804C65.4353 57.2145 64.2257 56.4675 62.8524 56.0328L51.9319 52.5753L40.0025 52.1561L28.0682 52.5753L17.1477 56.0328C13.4533 57.2025 10.9425 60.6309 10.9425 64.5061V67.4895C17.9408 74.8845 27.7318 79.6095 38.6274 79.977C50.8349 77.2656 60.9913 69.1058 66.4133 58.1804Z" fill="#4A80AA"/>
<path d="M69.0575 67.4894V64.5059C69.0575 61.7659 67.8013 59.2505 65.7599 57.5977C59.9613 69.4142 48.5064 77.952 34.9246 79.6784C36.5639 79.8861 38.2336 79.9969 39.9286 79.9998C41.5572 79.9973 43.1642 79.903 44.7449 79.7214C54.281 78.5945 62.7894 74.113 69.0575 67.4894Z" fill="#407093"/>
<path d="M40.9056 79.4012C43.3258 74.5964 49.6278 60.9532 47.8308 52.4311L40.0025 49.3843L32.1668 52.4312C30.3143 61.2164 37.0684 75.4432 39.3045 79.8203C39.8423 79.6912 40.3762 79.5514 40.9056 79.4012Z" fill="#E4F6FF"/>
<path d="M45.0308 75.592L41.8567 63.105H38.1431L34.9769 75.558L38.8922 79.9169C39.8861 79.6892 40.8663 79.4253 41.8313 79.1267L45.0308 75.592Z" fill="#E28086"/>
<path d="M38.9534 79.9852C39.2776 79.9936 39.6024 79.9994 39.9285 80C40.3059 79.9994 40.682 79.9928 41.057 79.9824L43.0737 77.7544C41.4863 78.3113 39.8534 78.771 38.1816 79.1261L38.9534 79.9852Z" fill="#DD636E"/>
<path d="M46.6835 51.2786V44.2371H33.3116V51.2786C33.3116 54.9711 39.9975 59.0045 39.9975 59.0045C39.9975 59.0045 46.6835 54.9711 46.6835 51.2786Z" fill="#FFDDCE"/>
<path d="M55.0139 28.1747H52.4578C51.0362 28.1747 49.8839 27.0223 49.8839 25.6008V24.1922C49.8839 22.3405 48.0722 21.0313 46.314 21.6124C42.2136 22.9677 37.7861 22.968 33.6855 21.6133L33.6806 21.6117C31.9225 21.0309 30.1111 22.3402 30.1111 24.1917V25.6009C30.1111 27.0225 28.9587 28.1748 27.5372 28.1748H24.9812V32.3839C24.9812 33.4594 25.8531 34.3314 26.9287 34.3314C27.2681 34.3314 27.5442 34.5972 27.5656 34.9359C27.9762 41.4466 33.3836 46.6006 39.9976 46.6006C46.6117 46.6006 52.019 41.4466 52.4297 34.9359C52.4511 34.5973 52.7272 34.3314 53.0665 34.3314C54.142 34.3314 55.014 33.4595 55.014 32.3839V28.1747H55.0139Z" fill="#FFDDCE"/>
<path d="M52.4579 28.1745C51.0363 28.1745 49.884 27.0222 49.884 25.6006V24.192C49.884 22.3403 48.0723 21.0311 46.3142 21.6122C45.8285 21.7726 45.3381 21.9126 44.8443 22.0351V35.937C44.7759 40.4601 42.2974 44.3967 38.6373 46.5242C39.0843 46.5728 39.5377 46.6002 39.9976 46.6002C46.6117 46.6002 52.019 41.4461 52.4296 34.9355C52.451 34.5969 52.7271 34.3309 53.0665 34.3309C54.142 34.3309 55.014 33.459 55.014 32.3834V28.1744H52.4579V28.1745Z" fill="#FFCBBE"/>
<path d="M33.3115 49.3843L28.0681 53.6448L33.5669 60.4437C34.2358 61.095 35.2886 61.135 36.0051 60.5365L40.1403 57.0823L33.3115 49.3843Z" fill="#F4FBFF"/>
<path d="M46.686 49.3843L40.1404 57.0823L44.0269 60.4054C44.739 61.0142 45.7968 60.9836 46.4724 60.3347L51.9318 53.6448L46.686 49.3843Z" fill="#F4FBFF"/>
<path d="M33.3117 49.3843L25.6154 53.1654C25.0295 53.4532 24.7942 54.1661 25.0934 54.7462L26.6012 57.6697C26.992 58.4271 26.8478 59.3503 26.2446 59.9525C25.9342 60.2623 25.5979 60.5979 25.3065 60.8889C24.785 61.4095 24.5976 62.1787 24.8273 62.879C26.6478 68.4286 35.4093 76.9146 38.7251 79.985C38.9481 79.9909 39.1715 79.995 39.3954 79.9975C36.9909 75.3204 28.4701 57.5514 33.3117 49.3843Z" fill="#365E7D"/>
<path d="M53.7531 59.9523C53.1498 59.3501 53.0057 58.427 53.3965 57.6695L54.9043 54.7461C55.2035 54.1659 54.9682 53.4531 54.3823 53.1653L46.686 49.3843C51.5263 57.5492 43.0115 75.3107 40.6043 79.9937C40.8306 79.9898 41.0563 79.9842 41.2817 79.9767C44.6043 76.8993 53.3517 68.4236 55.1704 62.8792C55.4001 62.1789 55.2127 61.4097 54.6912 60.889C54.3998 60.5979 54.0635 60.2622 53.7531 59.9523Z" fill="#365E7D"/>
<path d="M40.1404 57.0823L36.0685 60.483L38.1432 63.105H41.8568L43.9316 60.3283L40.1404 57.0823Z" fill="#DD636E"/>
</g>
<defs>
<clipPath id="clip0_23_1091">
<rect width="80" height="80" fill="white"/>
</clipPath>
</defs>
</svg>
