<svg width="48" height="48" viewBox="0 0 48 48" fill="none" xmlns="http://www.w3.org/2000/svg">
<path d="M42.2 5.8C41.0726 4.65795 39.5348 4.01511 37.93 4.01511C36.3253 4.01511 34.7874 4.65795 33.66 5.8L29.82 9.7L38.3 18.18L42.14 14.34C43.29 13.2207 43.9437 11.6873 43.955 10.0825C43.9662 8.47778 43.3342 6.93537 42.2 5.8Z" fill="#2D2D41"/>
<path d="M26.98 12.54L10.2 29.32C10.0496 29.4747 9.92167 29.6497 9.82002 29.84L4.26002 41.06C3.93199 41.6759 3.9487 42.4183 4.30412 43.0188C4.65953 43.6193 5.30225 43.9912 6.00002 44C6.30476 44.0013 6.60576 43.9328 6.88002 43.8L18.1 38.24C18.2903 38.1384 18.4654 38.0104 18.62 37.86L35.4 21.08L26.98 12.54Z" fill="#2D2D41"/>
<path d="M42 44H24C22.8954 44 22 43.1046 22 42C22 40.8954 22.8954 40 24 40H42C43.1046 40 44 40.8954 44 42C44 43.1046 43.1046 44 42 44Z" fill="#2D2D41"/>
</svg>
